<mxfile host="app.diagrams.net" modified="2023-10-04T15:50:01.109Z" agent="Mozilla/5.0 (X11; Linux x86_64; rv:109.0) Gecko/20100101 Firefox/114.0" version="22.0.2" etag="KhRmfx-RYpTEwUjKRpBf" type="github">
  <diagram name="PÃ¡gina-1" id="BFgOy48KKT5Wsr8kpU7M">
    <mxGraphModel>
      <root>
        <mxCell id="0" />
        <mxCell id="1" parent="0" />
      </root>
    </mxGraphModel>
  </diagram>
</mxfile>
